<svg width="40" height="32" viewBox="0 0 40 32" fill="none" xmlns="http://www.w3.org/2000/svg">
<g clip-path="url(#clip0_8107_57104)">
<g filter="url(#filter0_b_8107_57104)">
<path d="M14.3269 14.3879C13.9125 13.4607 13.7197 12.4168 13.8216 11.3178C14.092 8.3909 16.4587 6.02999 19.4039 5.7547C21.8441 5.5266 24.19 6.82556 25.379 8.83979C25.702 9.38698 25.8635 9.66057 25.9941 9.763C26.1437 9.88038 26.2025 9.9064 26.3901 9.93829C26.5537 9.96611 26.8251 9.90996 27.3678 9.79764C28.1932 9.62682 29.0477 9.53612 29.9235 9.53612C30.0406 9.53612 30.1572 9.53775 30.2733 9.54099C30.8127 9.55604 31.0825 9.56356 31.2491 9.4622C31.3944 9.3739 31.5011 9.23106 31.5446 9.06678C31.5945 8.87819 31.5241 8.66241 31.3833 8.23085C29.7615 3.26049 24.9332 -0.284325 19.333 0.0176022C13.2055 0.347953 8.42327 5.17328 8.0554 11.1548C7.9313 13.1744 8.32133 15.0904 9.10139 16.7972C10.6083 15.6256 12.3856 14.7843 14.3269 14.3879Z" fill="#00A1FF" fill-opacity="0.9"/>
</g>
<path d="M39.9909 21.627C39.7959 16.6938 35.8979 12.5996 30.9494 12.1548C27.8513 11.8751 25.0125 13.0181 23.0092 14.9958L23.0026 14.9892L12.997 24.9349V24.9305C12.1416 25.8049 10.9161 26.3136 9.57321 26.1903C7.60978 26.0097 6.00756 24.4504 5.78817 22.5036C5.50451 19.9819 7.49232 17.8412 9.9721 17.8412C10.9626 17.8412 11.8727 18.1829 12.5911 18.7541C13.3508 19.3581 13.7306 19.6601 13.9205 19.7056C14.1455 19.7596 14.2072 19.7562 14.4249 19.6777C14.6085 19.6115 14.8402 19.3813 15.3034 18.9209L17.3898 16.8474C17.6168 16.6219 17.7302 16.5091 17.7804 16.3653C17.8218 16.2463 17.8269 16.0937 17.7934 15.9723C17.753 15.8254 17.6571 15.7166 17.4655 15.4991C15.467 13.2302 12.4474 11.8739 9.12556 12.1482C4.28346 12.5468 0.394263 16.4427 0.0286116 21.257C-0.412386 27.0668 4.21698 31.934 9.9721 31.934C12.6225 31.934 15.0314 30.8989 16.8197 29.2185L16.8242 29.2229L17.0148 29.0335C17.0148 29.0335 17.0192 29.0313 17.0192 29.0291L27.1666 18.9512L27.1732 18.9556C28.0375 18.1605 29.2297 17.7157 30.5261 17.8676C32.4474 18.0901 33.9943 19.6317 34.2114 21.5433C34.4951 24.065 32.5095 26.2079 30.0275 26.2079C29.034 26.2079 28.1214 25.8631 27.4021 25.2884C26.6408 24.6801 26.2602 24.376 26.0701 24.33C25.8447 24.2755 25.783 24.2789 25.5649 24.3574C25.3808 24.4236 25.1482 24.6547 24.6831 25.117L22.6004 27.1868C22.3736 27.4122 22.2602 27.5249 22.2101 27.6686C22.1686 27.7874 22.1635 27.9399 22.1968 28.0613C22.2371 28.208 22.3328 28.3169 22.5241 28.5346C24.352 30.6147 27.0369 31.934 30.0297 31.934C35.6607 31.934 40.217 27.2716 39.9932 21.627H39.9909Z" fill="url(#paint0_linear_8107_57104)"/>
<path d="M39.9909 21.627C39.7959 16.6938 35.8979 12.5996 30.9494 12.1548C27.8513 11.8751 25.0125 13.0181 23.0092 14.9958L23.0026 14.9892L12.997 24.9349V24.9305C12.1416 25.8049 10.9161 26.3136 9.57321 26.1903C7.60978 26.0097 6.00756 24.4504 5.78817 22.5036C5.50451 19.9819 7.49232 17.8412 9.9721 17.8412C10.9626 17.8412 11.8727 18.1829 12.5911 18.7541C13.3508 19.3581 13.7306 19.6601 13.9205 19.7056C14.1455 19.7596 14.2072 19.7562 14.4249 19.6777C14.6085 19.6115 14.8402 19.3813 15.3034 18.9209L17.3898 16.8474C17.6168 16.6219 17.7302 16.5091 17.7804 16.3653C17.8218 16.2463 17.8269 16.0937 17.7934 15.9723C17.753 15.8254 17.6571 15.7166 17.4655 15.4991C15.467 13.2302 12.4474 11.8739 9.12556 12.1482C4.28346 12.5468 0.394263 16.4427 0.0286116 21.257C-0.412386 27.0668 4.21698 31.934 9.9721 31.934C12.6225 31.934 15.0314 30.8989 16.8197 29.2185L16.8242 29.2229L17.0148 29.0335C17.0148 29.0335 17.0192 29.0313 17.0192 29.0291L27.1666 18.9512L27.1732 18.9556C28.0375 18.1605 29.2297 17.7157 30.5261 17.8676C32.4474 18.0901 33.9943 19.6317 34.2114 21.5433C34.4951 24.065 32.5095 26.2079 30.0275 26.2079C29.034 26.2079 28.1214 25.8631 27.4021 25.2884C26.6408 24.6801 26.2602 24.376 26.0701 24.33C25.8447 24.2755 25.783 24.2789 25.5649 24.3574C25.3808 24.4236 25.1482 24.6547 24.6831 25.117L22.6004 27.1868C22.3736 27.4122 22.2602 27.5249 22.2101 27.6686C22.1686 27.7874 22.1635 27.9399 22.1968 28.0613C22.2371 28.208 22.3328 28.3169 22.5241 28.5346C24.352 30.6147 27.0369 31.934 30.0297 31.934C35.6607 31.934 40.217 27.2716 39.9932 21.627H39.9909Z" fill="url(#paint1_linear_8107_57104)"/>
</g>
<defs>
<filter id="filter0_b_8107_57104" x="5.38991" y="-2.64313" width="28.8134" height="22.0832" filterUnits="userSpaceOnUse" color-interpolation-filters="sRGB">
<feFlood flood-opacity="0" result="BackgroundImageFix"/>
<feGaussianBlur in="BackgroundImageFix" stdDeviation="1.3214"/>
<feComposite in2="SourceAlpha" operator="in" result="effect1_backgroundBlur_8107_57104"/>
<feBlend mode="normal" in="SourceGraphic" in2="effect1_backgroundBlur_8107_57104" result="shape"/>
</filter>
<linearGradient id="paint0_linear_8107_57104" x1="3.76727" y1="15.0197" x2="18.1387" y2="36.0136" gradientUnits="userSpaceOnUse">
<stop stop-color="#247CFF"/>
<stop offset="1" stop-color="#1F5EF4"/>
</linearGradient>
<linearGradient id="paint1_linear_8107_57104" x1="5.99798" y1="13.4505" x2="10.72" y2="34.9504" gradientUnits="userSpaceOnUse">
<stop stop-color="#247CFF"/>
<stop offset="1" stop-color="#1F5EF4"/>
</linearGradient>
<clipPath id="clip0_8107_57104">
<rect width="40" height="32" fill="white"/>
</clipPath>
</defs>
</svg>
