<svg xmlns="http://www.w3.org/2000/svg" id="Layer_1" version="1.1" viewBox="0 0 210 122.9"><defs><style>.st2{fill:#ff7690}.st3{fill:#f0f5fc}.st4{fill:#bac9de}</style></defs><path d="M61.8 72.5c0-17 14.2-31.4 31.1-31.4S124 55.5 124 72.5s-13.9 32.1-31.1 32.1-31.1-14.4-31.1-32.1M20.3 82.6V63.3h10.6c2.8 0 7.3 1.9 7.3 9.3s-2 10-7 10zm127.5-59.7V61c6.4-2.1 8.7-5.4 9-12.6v-5.6h21.9v5.8c-.3 7.1-2.5 17.1-8.1 24.1l12.3 27V59.3h26.9v43.8h-49.6l-9.4-20.6-2.9.7v19.9h-19.1c-.5.7-1.1 1.4-1.6 2-8.2 9.4-19.9 14.3-34 14.3s-26.2-5-34.4-14.3c-2.6-2.9-4.7-6.3-6.4-9.9-5.4 5.6-12.9 8.6-21.7 8.6H20.5v19.1H0V42.7h30.5c8.9 0 16.4 2.4 21.7 7.9 1.7-3.5 3.7-6.8 6.2-9.6 8.2-9.6 20.2-14.6 34.6-14.6s24.4 4.4 32.5 12.7V22.9h22.2Zm48.5 3.4c7.4 0 13.7 6.3 13.7 13.8s-6.1 14.2-13.7 14.2-13.7-6.4-13.7-14.2 6.3-13.8 13.7-13.8" style="fill:#002b50;fill-rule:evenodd"/><path d="M92.9 74.8c-13.7 0-20.7 2.4-23.6 3.2 2.4 11.2 12 19.5 23.6 19.5s21.2-8.4 23.6-19.5c-2.9-.7-9.8-3.2-23.6-3.2" style="fill-rule:evenodd;fill:#009cff"/><path d="m60.1 33.5 8.2-14.3 27.5-7.6 23.6 9 6.8 8.8 3.7 15.9-39.1 1.9-27.7-2.4z" class="st2"/><path d="m127.4 38-6.3 2.7c-.7.3-1.5.2-2.1-.1l-8.6-5.2c-.4-.3-.9-.4-1.4-.3L98 36c-.4 0-.8 0-1.2-.2l-9.7-4.7c-.5-.3-1.2-.3-1.7-.1l-12.9 4.3c-.5.2-1.1.2-1.6 0l-9.8-4.2c-1-.4-2.2 0-2.8.8l-5.8 8.7c-.3.4-.4.9-.4 1.4l.7 13c0 1.4 1.4 2.4 2.8 2.1L69.2 54h1.2l10.7 3.6c.3.1.7.1 1.1 0l14.5-2.2c.5 0 1.1 0 1.5.3l10.1 5.9c.5.3 1.1.4 1.7.2l10.8-2.7c.6-.1 1.2 0 1.7.2l7.8 4.3c1.3.7 2.9 0 3.3-1.4l2.5-8.5c.2-.5.1-1.1 0-1.6l-5.6-13.2c-.5-1.2-1.9-1.7-3-1.2Z" class="st3"/><path d="m136.3 53.2-2.8 9.5c-.4 1.3-1.8 1.9-3 1.2l-8.1-4.5c-.5-.3-1-.3-1.5-.2L110 61.9c-.5.1-1.1 0-1.5-.2l-10.2-5.9c-.4-.3-1-.3-1.5-.2l-15 3.2c-.4 0-.9 0-1.3-.1l-10-4.5c-.4-.2-.9-.2-1.3-.1l-13.8 3.1c-1.3.3-2.5-.6-2.5-1.9l-.8-14 15.4 5.1c.4.1.7.1 1.1 0l16-3.7h1.1l12.7 3.8h.7l12.3-.8c.4 0 .8 0 1.1.2l11.1 5.9c.2.1.5.2.8.2l12 1Z" class="st4"/><path d="m125.1 10.2-20.2 15.4L127.4 38l6.3-25.5z" class="st2"/><path d="m122.4 2.2-4 8.3 4 8.3 8.9 2.1 7.2-5.8V5.9L131.3.2z" class="st4"/><path d="m121.1 4.9 7.2 5.3 10.2.3V5.9L131.3.2l-8.9 2z" class="st3"/></svg>